<svg width="32" height="32" viewBox="0 0 32 32" fill="none" xmlns="http://www.w3.org/2000/svg">
<path d="M31.75 15.9987C31.75 24.6965 24.6985 31.7475 16 31.7475C7.3015 31.7475 0.25 24.6965 0.25 15.9987C0.25 7.30097 7.3015 0.25 16 0.25C24.6985 0.25 31.75 7.30097 31.75 15.9987Z" fill="#EEEEEE" stroke="#C9C9C9" stroke-width="0.5"/>
<path d="M19.9115 23.1602C19.8782 23.1402 19.8415 23.1235 19.8082 23.1035C22.6682 21.6936 24.6482 18.7672 24.6648 15.3841C24.6848 10.5812 20.8315 6.69814 16.0082 6.66814C11.2482 6.63814 7.34483 10.5112 7.32816 15.2775C7.31816 18.7139 9.28483 21.687 12.1482 23.1102C11.8582 23.2835 11.5682 23.4735 11.2815 23.6868C9.23483 25.2167 8.19816 27.3598 8.01816 29.9563C10.4415 31.2795 13.1782 31.9995 15.9948 31.9995C18.8115 31.9995 21.5282 31.3029 23.9615 29.9763C23.7115 26.9865 22.4415 24.6367 19.9115 23.1602ZM13.4615 14.8408C12.9982 14.8408 12.6215 14.4642 12.6215 14.0009C12.6215 13.5376 12.9982 13.161 13.4615 13.161C13.9248 13.161 14.3015 13.5376 14.3015 14.0009C14.3015 14.4642 13.9248 14.8408 13.4615 14.8408ZM15.9948 17.9339C15.1148 17.9339 14.4015 17.2173 14.4015 16.3407H14.9015C14.9015 16.944 15.3915 17.434 15.9948 17.434C16.5982 17.434 17.0882 16.944 17.0882 16.3407H17.5882C17.5882 17.2206 16.8715 17.9339 15.9948 17.9339ZM18.5282 14.8408C18.0648 14.8408 17.6882 14.4642 17.6882 14.0009C17.6882 13.5376 18.0648 13.161 18.5282 13.161C18.9915 13.161 19.3682 13.5376 19.3682 14.0009C19.3682 14.4642 18.9915 14.8408 18.5282 14.8408Z" fill="#C9C9C9"/>
</svg>
